<?xml version="1.0" encoding="utf-8"?>
<!-- Generator: Adobe Illustrator 15.1.0, SVG Export Plug-In . SVG Version: 6.00 Build 0)  -->
<!DOCTYPE svg PUBLIC "-//W3C//DTD SVG 1.1//EN" "http://www.w3.org/Graphics/SVG/1.1/DTD/svg11.dtd">
<svg version="1.1" id="Layer_1" xmlns="http://www.w3.org/2000/svg" xmlns:xlink="http://www.w3.org/1999/xlink" x="0px" y="0px"
	 width="64px" height="64px" viewBox="0 0 512 512" enable-background="new 0 0 512 512" xml:space="preserve">
<rect x="172.394" y="149.216" fill="#000000" width="66.771" height="213.32"/>
<rect x="272.955" y="149.216" fill="#000000" width="66.771" height="213.32"/>

<path fill="#000000" d="M256.021,495.357c-132.053,0-239.484-107.414-239.484-239.442
	c0-132.07,107.432-239.52,239.484-239.52c132.092,0,239.555,107.449,239.555,239.52
	C495.576,387.943,388.113,495.357,256.021,495.357z M256.021,37.944c-120.17,0-217.936,97.779-217.936,217.971
	c0,120.146,97.766,217.894,217.936,217.894c120.209,0,218.006-97.748,218.006-217.894C474.027,135.724,376.23,37.944,256.021,37.944
	z"/>
</svg>
