<?xml version="1.0" encoding="utf-8"?>
<!-- Generator: Adobe Illustrator 17.0.0, SVG Export Plug-In . SVG Version: 6.00 Build 0)  -->
<!DOCTYPE svg PUBLIC "-//W3C//DTD SVG 1.1//EN" "http://www.w3.org/Graphics/SVG/1.1/DTD/svg11.dtd">
<svg version="1.1" id="Layer_1" xmlns="http://www.w3.org/2000/svg" xmlns:xlink="http://www.w3.org/1999/xlink" x="0px" y="0px"
	 width="32px" height="32px" viewBox="0 0 32 32" enable-background="new 0 0 32 32" xml:space="preserve">
<path id="_x31_067-play" fill="#800000018000000180000001" d="M16.053,0.823c-8.27,0-14.998,6.729-14.998,15
	c0,8.271,6.728,14.995,14.998,14.995c8.271,0,15.002-6.724,15.002-14.995C31.055,7.552,24.324,0.823,16.053,0.823z M16.053,28.601
	c-7.057,0-12.777-5.719-12.777-12.775c0-7.059,5.722-12.779,12.777-12.779c7.057,0,12.777,5.721,12.777,12.779
	C28.83,22.882,23.109,28.601,16.053,28.601z M12.732,23.21l9.287-7.387l-9.287-7.387V23.21z"/>
</svg>
