<svg xmlns="http://www.w3.org/2000/svg" xmlns:xlink="http://www.w3.org/1999/xlink" width="17.813" height="14.187" viewBox="0 0 17.813 14.187">

<defs>
    <style>
      .cls-1 {
        fill-rule: evenodd;
        opacity: 0.3;
        filter: url(#filter);
      }
    </style>
    <filter id="filter" x="285.531" y="825.813" width="17.813" height="14.187" filterUnits="userSpaceOnUse">
      <feFlood result="flood" flood-color="#fff"/>
      <feComposite result="composite" operator="in" in2="SourceGraphic"/>
      <feBlend result="blend" in2="SourceGraphic"/>
    </filter>
  </defs>
  <path id="twitter_copy_2" data-name="twitter copy 2" class="cls-1" d="M303.353,827.483a7.391,7.391,0,0,1-2.1.564,3.607,3.607,0,0,0,1.606-1.983,7.4,7.4,0,0,1-2.32.87,3.68,3.68,0,0,0-2.667-1.132,3.62,3.62,0,0,0-3.654,3.584,3.541,3.541,0,0,0,.095.817,10.439,10.439,0,0,1-7.531-3.744,3.513,3.513,0,0,0-.494,1.8,3.566,3.566,0,0,0,1.625,2.983,3.692,3.692,0,0,1-1.655-.448v0.044a3.606,3.606,0,0,0,2.931,3.516,3.772,3.772,0,0,1-.963.125,3.7,3.7,0,0,1-.687-0.064,3.651,3.651,0,0,0,3.413,2.49,7.425,7.425,0,0,1-4.538,1.534,7.575,7.575,0,0,1-.871-0.05,10.484,10.484,0,0,0,5.6,1.611,10.222,10.222,0,0,0,10.4-10.2c0-.155,0-0.31-0.011-0.464A7.354,7.354,0,0,0,303.353,827.483Z" transform="translate(-285.531 -825.813)"/>
</svg>
