<svg xmlns="http://www.w3.org/2000/svg" xmlns:xlink="http://www.w3.org/1999/xlink" width="28.969" height="22.79"><defs><filter id="a" x="191.031" y="2265.09" width="24.969" height="18.79" filterUnits="userSpaceOnUse"><feFlood result="flood" flood-color="#333"/><feComposite result="composite" operator="in" in2="SourceGraphic"/><feBlend result="blend" in2="SourceGraphic"/></filter></defs><g transform="translate(-189.031 -2263.09)" fill="#fff" filter="url(#a)"><path id="b" data-name="tick copy 7" d="M191.25 2273.03l2.245-2.25a.777.777 0 0 1 1.123 0l9.446 9.47a.8.8 0 0 1 0 1.13l-2.245 2.25a.793.793 0 0 1-1.122 0l-9.447-9.48a.791.791 0 0 1 0-1.12zm22.3-7.73l2.215 2.22a.786.786 0 0 1 0 1.11l-14.173 15a.793.793 0 0 1-1.107 0l-2.216-2.22a.786.786 0 0 1 0-1.11l14.173-15a.776.776 0 0 1 1.11 0z" stroke="inherit" filter="none" fill="inherit" fill-opacity="0" stroke-linejoin="round" stroke-width="4" fill-rule="evenodd" opacity=".3"/></g><use transform="translate(-189.031 -2263.09)" xlink:href="#b" stroke="#333" filter="none" fill="none"/></svg>