<svg xmlns="http://www.w3.org/2000/svg" width="41" height="34"><defs><filter id="a"><feFlood flood-color="#333" flood-opacity="1" result="floodOut"/><feComposite operator="atop" in="floodOut" in2="SourceGraphic" result="compOut"/><feBlend in="compOut" in2="SourceGraphic"/></filter></defs><g filter="url(#a)"><path fill-rule="evenodd" stroke-width="4" stroke="#333" opacity=".302" fill="#FFF" d="M32.767 11.631L21.29 23.775a.791.791 0 0 1-.226.601l-2.245 2.251a.777.777 0 0 1-.677.211.767.767 0 0 1-.655-.211l-2.216-2.221a.77.77 0 0 1-.202-.414l-6.819-6.84a.797.797 0 0 1 0-1.125l2.245-2.252a.792.792 0 0 1 1.123 0l6.494 6.514L29.444 8.298a.782.782 0 0 1 1.108 0l2.215 2.222a.787.787 0 0 1 0 1.111z"/></g></svg>