<svg xmlns="http://www.w3.org/2000/svg" width="64" height="64" viewBox="0 0 512 512"><path d="M172.394 149.216h66.771v213.32h-66.771zm100.561 0h66.771v213.32h-66.771z"/><path d="M256.021 495.357c-132.053 0-239.484-107.414-239.484-239.442 0-132.07 107.432-239.52 239.484-239.52 132.092 0 239.555 107.449 239.555 239.52 0 132.028-107.463 239.442-239.555 239.442zm0-457.413c-120.17 0-217.936 97.779-217.936 217.971 0 120.146 97.766 217.894 217.936 217.894 120.209 0 218.006-97.748 218.006-217.894 0-120.191-97.797-217.971-218.006-217.971z"/></svg>